<?xml version="1.0" standalone="no"?>
<!DOCTYPE svg PUBLIC "-//W3C//DTD SVG 20010904//EN"
 "http://www.w3.org/TR/2001/REC-SVG-20010904/DTD/svg10.dtd">
<svg version="1.0" xmlns="http://www.w3.org/2000/svg"
 width="800.000000pt" height="800.000000pt" viewBox="0 0 800.000000 800.000000"
 preserveAspectRatio="xMidYMid meet">
<metadata>
Created by potrace 1.14, written by Peter Selinger 2001-2017
</metadata>
<g transform="translate(0.000000,800.000000) scale(0.100000,-0.100000)"
fill="#000000" stroke="none">
<path d="M3618 7195 c-2 -1 -55 -6 -118 -10 -177 -11 -184 -12 -285 -48 -185
-65 -353 -191 -395 -295 l-13 -33 -151 3 -151 3 -34 65 c-39 75 -75 111 -145
147 l-50 25 -455 -5 c-471 -5 -515 -8 -616 -33 -136 -34 -176 -92 -179 -261
-1 -40 -4 -74 -6 -76 -3 -2 -57 -30 -120 -62 -63 -32 -117 -61 -120 -65 -3 -3
-31 -23 -63 -44 -171 -112 -363 -315 -489 -518 -76 -123 -150 -297 -199 -471
l-30 -108 4 -1587 c5 -1484 7 -1638 22 -1717 25 -131 142 -410 218 -519 66
-94 126 -174 152 -203 17 -17 42 -44 56 -60 25 -27 92 -89 157 -146 186 -159
552 -324 782 -351 242 -28 4915 -29 5214 -1 56 5 252 56 311 81 22 9 51 21 65
27 14 6 27 11 30 12 24 6 167 82 225 120 268 173 465 393 602 670 19 39 39 78
44 88 10 19 58 144 65 167 25 94 35 150 41 230 10 119 10 3206 1 3240 -4 14
-12 41 -18 60 -6 19 -13 46 -16 59 -3 13 -10 33 -15 43 -6 11 -12 28 -14 39
-5 27 -73 184 -108 249 -32 59 -141 226 -179 274 -91 113 -283 279 -433 374
-34 21 -262 131 -285 137 -3 0 -41 13 -85 27 -226 74 -224 74 -1095 84 -300 3
-547 8 -550 11 -3 2 -5 8 -5 11 0 18 -57 101 -89 130 -46 42 -157 113 -221
142 -131 60 -186 74 -335 87 -60 5 -917 13 -922 8z m-907 -915 c7 5 17 6 22 3
4 -3 32 -4 60 -4 79 2 2404 3 2547 2 69 -1 130 -1 135 0 6 1 14 1 19 0 4 -1
213 -4 465 -6 251 -2 465 -6 476 -8 11 -3 40 -8 65 -12 279 -45 544 -197 715
-410 22 -28 43 -51 48 -53 4 -2 7 -8 7 -12 0 -5 13 -28 29 -52 39 -57 103
-193 140 -295 l30 -82 1 -643 c4 -2011 2 -2328 -15 -2418 -2 -14 -7 -41 -9
-60 -13 -95 -94 -279 -176 -399 -100 -149 -269 -295 -438 -380 -67 -34 -215
-86 -271 -96 -106 -18 -947 -27 -2566 -27 -1542 0 -2475 9 -2545 25 -284 66
-509 209 -686 437 -76 97 -173 281 -198 375 -40 150 -42 306 -36 2568 l2 618
39 105 c79 211 142 313 284 462 164 173 380 290 620 337 70 13 237 18 687 19
263 1 478 4 478 8 0 4 13 3 29 -2 15 -4 34 -4 42 0z"/>
<path d="M2147 6114 c-1 -1 -141 -4 -312 -7 -170 -3 -317 -7 -325 -11 -8 -3
-31 -7 -51 -10 -20 -3 -48 -10 -63 -15 -14 -6 -26 -9 -26 -6 0 14 -221 -94
-248 -122 -7 -7 -18 -13 -23 -13 -16 0 -175 -162 -213 -217 -76 -111 -139
-262 -163 -392 -2 -14 -6 -27 -8 -31 -13 -20 -26 -412 -15 -431 4 -6 208 -8
540 -7 l533 3 45 85 c24 47 49 95 56 107 6 13 14 23 19 23 4 0 7 4 7 10 0 13
61 100 141 203 71 90 284 309 369 378 97 80 178 139 189 139 6 0 11 3 11 8 0
8 80 58 185 115 67 36 275 140 285 142 3 1 13 5 23 8 9 4 25 9 34 13 41 13
-17 20 -189 23 -198 3 -799 7 -801 5z"/>
<path d="M4918 6112 c-38 -2 -68 -7 -68 -11 0 -5 37 -24 83 -42 103 -41 218
-97 302 -149 36 -22 70 -40 75 -40 6 0 10 -4 10 -8 0 -4 15 -16 33 -27 17 -10
37 -23 42 -27 6 -5 46 -36 90 -69 172 -131 340 -292 470 -450 71 -87 95 -118
95 -124 0 -3 9 -15 20 -27 11 -12 20 -28 20 -35 0 -7 4 -13 9 -13 5 0 35 -54
67 -119 l59 -119 534 -4 c464 -3 534 -1 539 12 13 32 3 348 -13 439 -24 134
-90 302 -157 398 -47 69 -163 182 -233 229 -130 88 -283 153 -375 159 -288 21
-1344 38 -1602 27z"/>
<path d="M3825 5994 c-145 -18 -183 -23 -255 -40 -36 -9 -77 -18 -93 -20 -32
-6 -275 -86 -327 -107 -19 -9 -37 -15 -40 -15 -24 3 -378 -200 -446 -255 -10
-9 -53 -42 -94 -75 -148 -119 -294 -275 -413 -444 -91 -130 -83 -118 -169
-289 -154 -308 -227 -628 -222 -970 1 -122 8 -221 19 -274 3 -11 7 -38 10 -60
20 -143 134 -499 176 -551 5 -6 6 -14 2 -17 -3 -4 -2 -7 3 -7 6 0 15 -15 22
-32 6 -18 35 -71 63 -118 28 -47 57 -94 63 -105 11 -19 22 -35 110 -155 63
-85 83 -107 206 -230 63 -63 144 -137 180 -165 36 -27 67 -52 70 -55 13 -13
151 -100 160 -100 5 0 10 -4 10 -10 0 -5 4 -10 9 -10 5 0 35 -15 68 -33 32
-18 83 -43 113 -56 30 -13 69 -29 85 -37 32 -14 162 -63 170 -64 3 0 6 0 8 -1
12 -4 154 -40 172 -44 11 -3 31 -7 45 -10 14 -4 43 -8 65 -11 22 -3 46 -7 53
-9 70 -24 460 -25 642 0 206 27 470 107 665 200 55 27 102 49 105 49 30 7 253
154 345 226 118 94 259 229 317 305 12 17 33 41 46 55 13 14 30 37 38 53 8 15
19 27 24 27 6 0 10 7 10 15 0 8 5 15 10 15 6 0 10 4 10 9 0 5 18 37 41 71 38
58 135 243 160 306 27 70 60 160 64 174 2 8 13 51 26 95 12 44 23 89 25 100 1
11 3 20 4 20 3 0 13 57 26 145 20 130 25 419 10 530 -4 30 -8 69 -10 85 -4 45
-16 101 -38 190 -11 44 -21 85 -22 90 -10 42 -20 72 -26 80 -3 6 -12 30 -19
55 -7 25 -22 65 -33 90 -99 221 -174 349 -300 517 -88 118 -303 336 -413 418
-44 33 -81 63 -83 68 -2 4 -8 7 -13 7 -5 0 -31 15 -57 33 -39 28 -229 137
-237 137 -2 0 -37 16 -78 35 -70 33 -284 108 -337 119 -14 3 -36 8 -50 11 -79
18 -156 31 -250 41 -96 11 -330 9 -425 -2z m400 -539 c33 -3 76 -11 95 -16 19
-5 47 -9 63 -9 15 0 27 -3 27 -7 0 -5 10 -9 23 -10 36 -4 34 -3 172 -53 156
-57 295 -134 430 -239 66 -51 206 -186 268 -259 36 -43 167 -233 167 -243 0
-5 13 -30 29 -57 64 -109 144 -342 167 -488 3 -20 8 -46 11 -58 9 -33 11 -407
3 -436 -4 -14 -13 -54 -20 -90 -6 -36 -14 -74 -16 -85 -5 -29 -53 -174 -71
-215 -36 -84 -97 -205 -105 -208 -4 -2 -8 -8 -8 -14 0 -35 -170 -253 -283
-362 -248 -238 -609 -413 -932 -452 -22 -3 -65 -8 -95 -13 -97 -13 -308 -6
-433 15 -198 32 -441 122 -591 218 -31 20 -59 36 -62 36 -4 0 -17 9 -47 36 -7
6 -19 15 -28 20 -84 48 -379 355 -379 394 0 5 -4 10 -10 10 -5 0 -10 7 -10 15
0 8 -4 15 -8 15 -8 0 -79 121 -125 215 -52 104 -110 292 -131 425 -31 195 -24
423 18 595 1 6 6 26 10 45 13 60 61 205 69 208 4 2 7 12 7 21 0 10 3 21 8 25
4 4 7 11 7 14 1 17 74 155 123 232 74 116 150 210 247 305 106 104 131 124
245 200 220 147 477 241 734 270 28 3 51 7 53 8 5 6 319 -1 378 -8z"/>
<path d="M3904 5201 c-2 -2 -16 -6 -31 -7 -41 -4 -105 -13 -133 -19 -63 -12
-76 -15 -129 -31 -31 -10 -60 -18 -66 -20 -45 -10 -248 -103 -253 -116 -2 -5
-8 -8 -12 -8 -12 0 -80 -44 -151 -97 -98 -73 -191 -170 -308 -323 -24 -31
-151 -274 -151 -287 0 -5 -4 -19 -9 -33 -11 -33 -31 -101 -47 -165 -25 -99
-36 -352 -20 -465 11 -83 17 -115 22 -130 3 -8 8 -26 10 -40 3 -14 10 -41 16
-60 7 -19 13 -37 13 -40 13 -50 83 -201 128 -278 97 -166 193 -268 392 -420
94 -72 359 -188 475 -208 14 -3 32 -7 40 -10 8 -3 31 -7 50 -10 19 -2 64 -8
100 -13 83 -11 305 -7 395 8 127 21 262 61 370 111 22 10 42 17 45 16 3 0 19
9 37 22 17 12 34 22 37 22 3 0 45 27 93 59 109 74 241 200 319 306 74 100 75
102 127 205 23 47 47 88 52 92 6 4 7 8 3 8 -4 0 2 21 12 46 11 25 22 55 24 67
2 12 9 34 15 50 6 15 8 27 5 27 -4 0 -1 6 5 13 6 8 9 16 6 19 -3 2 0 20 5 39
41 140 29 438 -24 619 -9 30 -18 62 -20 70 -15 58 -114 273 -128 278 -4 2 -8
8 -8 14 0 10 -56 94 -77 116 -7 7 -20 26 -29 41 -18 31 -202 215 -244 244
-166 116 -280 177 -405 217 -38 12 -77 25 -85 27 -8 3 -22 7 -30 8 -8 1 -31 5
-50 10 -88 20 -372 39 -386 26z m439 -209 c98 -4 240 -72 321 -154 136 -137
120 -277 -39 -349 -42 -19 -67 -23 -160 -22 -126 0 -194 16 -295 70 -72 39
-156 119 -183 175 -66 140 39 269 232 285 36 3 68 7 70 9 1 1 13 -1 25 -5 11
-5 24 -9 29 -9z m-793 -2137 c25 -4 68 -13 95 -21 28 -8 52 -15 55 -15 3 -1
20 -7 39 -15 18 -8 36 -14 40 -14 7 0 94 -43 101 -50 6 -6 36 -25 75 -46 54
-30 107 -92 103 -121 -5 -47 -47 -67 -146 -69 -75 -3 -121 3 -260 32 -90 18
-247 94 -308 147 -72 63 -90 113 -54 145 41 35 135 45 260 27z"/>
<path d="M6728 2245 c-2 -3 -13 -6 -24 -8 -66 -11 -149 -80 -184 -154 -62
-133 -2 -295 135 -359 54 -26 195 -26 245 -1 62 30 126 101 131 144 1 5 6 19
11 33 17 44 11 125 -14 181 -32 77 -103 138 -178 155 -35 8 -117 13 -122 9z"/>
</g>
</svg>
